<?xml version="1.0" encoding="UTF-8" standalone="no" ?>
<!DOCTYPE svg PUBLIC "-//W3C//DTD SVG 1.1//EN" "http://www.w3.org/Graphics/SVG/1.1/DTD/svg11.dtd">
<svg xmlns="http://www.w3.org/2000/svg" xmlns:xlink="http://www.w3.org/1999/xlink" version="1.1" width="1366" height="768" viewBox="0 0 1366 768" xml:space="preserve">
<desc>Created with Fabric.js 4.6.0</desc>
<defs>
</defs>
<g transform="matrix(2.73 0 0 2.73 682.41 682.96)" id="4hmaUWl_eoBZXb4KrYAM0"  >
<linearGradient id="SVGID_1267" gradientUnits="userSpaceOnUse" gradientTransform="matrix(1 0 0 1 -249.74 -249.74)"  x1="10.319917440660475" y1="490.1960784313725" x2="393.1888544891641" y2="73.27141382868933">
<stop offset="0%" style="stop-color:#98CBEE;stop-opacity: 1"/>
<stop offset="100%" style="stop-color:#0593F7;stop-opacity: 1"/>
</linearGradient>
<path style="stroke: rgb(0,0,0); stroke-opacity: 0; stroke-width: 1; stroke-dasharray: none; stroke-linecap: butt; stroke-dashoffset: 0; stroke-linejoin: miter; stroke-miterlimit: 4; fill: url(#SVGID_1267); fill-rule: nonzero; opacity: 1;" vector-effect="non-scaling-stroke"  transform=" translate(0, 0)" d="M -249.742 -249.742 L 0 -249.742 C 0 -249.742 11.56558 -196.88783999999998 115.86796 -189.58971 C 220.17034999999998 -182.29157 249.74200000000002 -136.95812999999998 249.74200000000002 -136.95812999999998 L 249.74200000000002 249.74200000000002 L -249.74199999999996 249.74200000000002 z" stroke-linecap="round" />
</g>
<g transform="matrix(3.05 0 0 3.05 630.76 839.38)" id="AeW8kYYSL9xkZ_1WGcIBx"  >
<path style="stroke: rgb(0,0,0); stroke-opacity: 0; stroke-width: 0; stroke-dasharray: none; stroke-linecap: butt; stroke-dashoffset: 0; stroke-linejoin: miter; stroke-miterlimit: 4; fill: rgb(255,255,255); fill-rule: nonzero; opacity: 1;" vector-effect="non-scaling-stroke"  transform=" translate(0, 0)" d="M -116.91231 -77.92038 C -104.88667000000001 -77.92038 -94.61714 -72.66337 -83.71785 -69.75466 L -83.71785 -69.75466 C -79.95994 -68.75178 -76.00437 -68.75485 -72.24802 -69.76356 C -61.30412 -72.70237 -50.99454 -78.00039 -38.91231 -78.00039 C -26.90178 -78.00039 -16.64801 -72.75950999999999 -5.771129999999999 -69.83245 L -5.771129999999999 -69.83245 C -1.8652999999999995 -68.78135999999999 2.2480900000000013 -68.77457 6.157360000000001 -69.81277 C 16.939230000000002 -72.67613 27.10752 -77.83039 38.99768 -77.83039 C 51.093590000000006 -77.83039 61.41708 -72.52159999999999 72.37828 -69.59098 L 72.37828 -69.59098 C 76.03368 -68.61366 79.88168 -68.61366 83.53709 -69.59098 C 94.49829000000001 -72.5216 104.82177000000001 -77.83039 116.91769000000001 -77.83039 C 129.01229 -77.83039 139.33494000000002 -72.52274 150.29513 -69.59282999999999 L 150.29513 -69.59282999999999 C 153.94934 -68.61596999999999 157.79603 -68.61596999999999 161.45025 -69.59282999999999 C 172.41044000000002 -72.52274 182.7331 -77.83039 194.82769000000002 -77.83039 C 237.83698 -77.83039 272.74307 -42.924299999999995 272.74307 0.08499000000000478 C 272.74307 43.094280000000005 237.83697999999998 78.00037 194.82769 78.00037 C 180.64025999999998 78.00037 167.33456999999999 74.20212000000001 155.87268999999998 67.56768000000001 C 144.41080999999997 74.20212000000001 131.10511999999997 78.00037 116.91768999999998 78.00037 C 102.72819999999999 78.00037 89.42069999999998 74.20101 77.95768999999999 67.56478 C 66.49467999999999 74.20101 53.187179999999984 78.00037 38.997689999999984 78.00037 C 24.749629999999982 78.00037 11.390859999999986 74.16958000000001 -0.10416000000001446 67.48246 C -11.532780000000015 74.06446 -24.785430000000016 77.83037 -38.91231000000001 77.83037 C -53.08984000000001 77.83037 -66.38685000000001 74.03742 -77.84331 67.41156000000001 C -89.33093 74.08687 -102.67782 77.91037000000001 -116.91231 77.91037000000001 C -131.06878 77.91037000000001 -144.34736 74.12867000000001 -155.79226 67.52107000000001 C -167.27231 74.18433 -180.60706 78.00037 -194.82768 78.00037 C -237.83696999999998 78.00037 -272.74306 43.094280000000005 -272.74306 0.08499000000000478 C -272.74306 -42.924299999999995 -237.83697 -77.83039 -194.82768000000002 -77.83039 C -182.9915 -77.83039 -172.86689 -72.71853999999999 -162.13746000000003 -69.85946 L -162.13746000000003 -69.85946 C -158.08255000000003 -68.77894 -153.81493000000003 -68.78267 -149.76192000000003 -69.87027 C -138.98216000000002 -72.76294 -128.81219000000004 -77.9204 -116.91231000000003 -77.9204 z" stroke-linecap="round" />
</g>
<g transform="matrix(4.42 0 0 4.42 27.48 375.76)" id="EzBVYk0l9ag_mHvWsEm4t"  >
<linearGradient id="SVGID_2075" gradientUnits="userSpaceOnUse" gradientTransform="matrix(1 0 0 1 -25.8 -25.8)"  x1="19.628078269491507" y1="49.879600963192296" x2="66.37123373601248" y2="1.7199862401100674">
<stop offset="0%" style="stop-color:#50E7FF;stop-opacity: 1"/>
<stop offset="100%" style="stop-color:#CD39FF;stop-opacity: 1"/>
</linearGradient>
<path style="stroke: rgb(0,0,0); stroke-opacity: 0; stroke-width: 0; stroke-dasharray: none; stroke-linecap: butt; stroke-dashoffset: 0; stroke-linejoin: miter; stroke-miterlimit: 4; fill: url(#SVGID_2075); fill-rule: nonzero; opacity: 1;" vector-effect="non-scaling-stroke"  transform=" translate(0, 0)" d="M 0 -25.79979 C 14.24149 -25.79979 25.79979 -14.241480000000001 25.79979 0 C 25.79979 14.24149 14.241480000000001 25.79979 0 25.79979 C -14.24149 25.79979 -25.79979 14.241480000000001 -25.79979 0 C -25.79979 -14.24149 -14.241480000000001 -25.79979 0 -25.79979 z" stroke-linecap="round" />
</g>
</svg>